<?xml version="1.0" encoding="UTF-8" standalone="no"?>
<!DOCTYPE svg PUBLIC "-//W3C//DTD SVG 1.1//EN" "http://www.w3.org/Graphics/SVG/1.1/DTD/svg11.dtd">
<svg width="100%" height="100%" viewBox="0 0 512 512" version="1.1" xmlns="http://www.w3.org/2000/svg" xmlns:xlink="http://www.w3.org/1999/xlink" xml:space="preserve" xmlns:serif="http://www.serif.com/" style="fill-rule:evenodd;clip-rule:evenodd;stroke-linejoin:round;stroke-miterlimit:2;">
    <g transform="matrix(0.995154,0,0,0.995154,36,-12.2013)">
        <circle cx="221.071" cy="269.507" r="221.071" style="fill:url(#_Radial1);"/>
    </g>
    <g transform="matrix(0.162018,0,0,0.162018,147.988,155.999)">
        <path d="M923.15,531.47L923.15,441.75C927.22,424.42 934.81,419.26 943.39,417.67C966.58,414.06 964.04,526.1 923.15,531.46L923.15,531.47ZM486.15,811.22L586.04,1104.99L636.26,930.66L611.64,903.72C600.53,887.54 598.11,873.36 604.27,861.17C617.6,834.79 645.2,839.71 670.98,839.71C698,839.71 731.35,834.59 739.8,868.41C742.63,879.71 739.07,891.56 731.15,903.73L706.52,930.68L756.75,1105L847.19,811.23C912.45,869.94 1142.09,881.73 1213.95,921.8C1236.68,934.47 1257.21,950.61 1273.72,972.41C1298.77,1005.49 1314.14,1048.71 1318.33,1103.55L1333.34,1169.95C1329.69,1208.77 1307.67,1231.14 1264.34,1234.44L69,1234.44C25.67,1231.14 3.64,1208.77 0,1169.95L15,1103.55C19.2,1048.71 34.56,1005.5 59.62,972.41C76.14,950.59 96.66,934.47 119.39,921.8C191.25,881.72 420.88,869.94 486.15,811.23L486.15,811.22ZM357.01,226.49L357.01,169.08C365.31,100.42 397.29,72.84 449.76,80.74C499.72,28.5 570.21,-0.64 667.29,0.13C775.41,-2 867.59,23.22 934.52,91.77C969.72,126.83 984.71,181.13 975.63,258.36C977.5,334.11 985.84,366.96 961.28,380.29C961.15,382.4 961.09,384.4 960.93,386.53L943.98,397.12C957.65,396.1 967.25,404.62 972.99,419.07C975.85,426.28 977.67,435.16 978.4,444.79C979.09,453.78 978.9,463.79 977.79,473.89C973.75,510.63 956.87,548.96 925.56,553.56C924.19,553.76 922.83,553.78 921.52,553.65L921.52,558.33C921.52,558.54 921.51,558.75 921.5,558.95C923.58,610.26 896.44,667.24 852.7,712.9C773.07,796.06 642.25,837.41 528.67,743.25C508.93,726.88 485.95,710.65 467.89,685.3C468.08,685.11 468.28,684.91 468.48,684.74L468.1,684.37C438.86,657.11 424.97,644.18 413.34,588.33" style="fill:rgb(254,255,254);"/>
    </g>
    <defs>
        <radialGradient id="_Radial1" cx="0" cy="0" r="1" gradientUnits="userSpaceOnUse" gradientTransform="matrix(442.143,0,0,442.143,0,269.507)"><stop offset="0" style="stop-color:rgb(242,100,25);stop-opacity:1"/><stop offset="1" style="stop-color:rgb(246,174,45);stop-opacity:1"/></radialGradient>
    </defs>
</svg>
