<?xml version="1.0" encoding="UTF-8" standalone="no"?>
<!DOCTYPE svg PUBLIC "-//W3C//DTD SVG 1.1//EN" "http://www.w3.org/Graphics/SVG/1.1/DTD/svg11.dtd">
<svg width="100%" height="100%" viewBox="0 0 512 512" version="1.1" xmlns="http://www.w3.org/2000/svg" xmlns:xlink="http://www.w3.org/1999/xlink" xml:space="preserve" xmlns:serif="http://www.serif.com/" style="fill-rule:evenodd;clip-rule:evenodd;stroke-linejoin:round;stroke-miterlimit:2;">
    <g transform="matrix(0.995154,0,0,0.995154,36,-12.2013)">
        <circle cx="221.071" cy="269.507" r="221.071" style="fill:url(#_Radial1);"/>
    </g>
    <g transform="matrix(0.060006,0,0,0.060006,163.771,156.06)">
        <path d="M1058,2162C1021,2162 990,2126 990,2082C990,2038 1020,2002 1058,2002L1428,2002C1465,2002 1496,2038 1496,2082C1496,2126 1466,2162 1428,2162L1058,2162ZM2323,1828C2531,1828 2719,1912 2855,2048C2991,2184 3075,2372 3075,2580C3075,2788 2991,2976 2855,3112C2719,3248 2531,3332 2323,3332C2115,3332 1927,3248 1791,3112C1655,2976 1571,2788 1571,2580C1571,2372 1655,2184 1791,2048C1927,1912 2115,1828 2323,1828ZM2266,2228C2266,2191 2296,2161 2333,2161C2370,2161 2400,2191 2400,2228L2400,2579L2662,2734C2694,2753 2704,2794 2686,2826C2667,2858 2626,2868 2594,2850L2303,2677C2281,2666 2266,2643 2266,2617L2266,2228ZM2760,2143C2648,2031 2494,1962 2323,1962C2152,1962 1998,2031 1886,2143C1774,2255 1705,2409 1705,2580C1705,2751 1774,2905 1886,3017C1998,3129 2152,3198 2323,3198C2494,3198 2648,3129 2760,3017C2872,2905 2941,2751 2941,2580C2941,2409 2872,2255 2760,2143ZM1196,2981C1241,2981 1277,3017 1277,3062C1277,3107 1241,3143 1196,3143L187,3143C135,3143 88,3122 54,3088C20,3054 -1,3007 -1,2955L-1,187C-1,135 20,88 54,54C88,20 135,-1 187,-1L2490,-1C2542,-1 2589,20 2623,54C2657,88 2678,135 2678,187L2678,1470C2678,1515 2642,1551 2597,1551C2552,1551 2516,1515 2516,1470L2516,187C2516,180 2513,173 2508,168C2503,163 2497,160 2489,160L186,160C179,160 172,163 167,168C162,173 159,179 159,187L159,2955C159,2962 162,2969 167,2974C172,2979 178,2982 186,2982L1195,2982L1196,2981ZM518,1965L720,1965C735,1965 746,1977 746,1991L746,2193C746,2208 734,2219 720,2219L518,2219C503,2219 492,2207 492,2193L492,1991C492,1976 504,1965 518,1965ZM518,582L720,582C735,582 746,594 746,608L746,810C746,825 734,836 720,836L518,836C503,836 492,824 492,810L492,608C492,593 504,582 518,582ZM1058,778C1021,778 990,742 990,698C990,654 1020,618 1058,618L2020,618C2057,618 2088,654 2088,698C2088,742 2058,778 2020,778L1058,778ZM601,1522C584,1536 559,1532 541,1515C539,1514 537,1512 535,1510L450,1423C432,1405 436,1374 459,1354C482,1334 515,1333 532,1352L578,1400L726,1281C746,1265 776,1272 793,1297C810,1322 808,1354 788,1370L598,1523L601,1522ZM1013,1455C976,1455 945,1419 945,1375C945,1331 975,1295 1013,1295L1975,1295C2012,1295 2043,1331 2043,1375C2043,1419 2013,1455 1975,1455L1013,1455Z" style="fill:rgb(254,255,254);fill-rule:nonzero;"/>
    </g>
    <defs>
        <radialGradient id="_Radial1" cx="0" cy="0" r="1" gradientUnits="userSpaceOnUse" gradientTransform="matrix(442.143,0,0,442.143,0,269.507)"><stop offset="0" style="stop-color:rgb(242,100,25);stop-opacity:1"/><stop offset="1" style="stop-color:rgb(246,174,45);stop-opacity:1"/></radialGradient>
    </defs>
</svg>
