<?xml version="1.0" encoding="UTF-8" standalone="no"?>
<!DOCTYPE svg PUBLIC "-//W3C//DTD SVG 1.1//EN" "http://www.w3.org/Graphics/SVG/1.1/DTD/svg11.dtd">
<svg width="100%" height="100%" viewBox="0 0 512 512" version="1.1" xmlns="http://www.w3.org/2000/svg" xmlns:xlink="http://www.w3.org/1999/xlink" xml:space="preserve" xmlns:serif="http://www.serif.com/" style="fill-rule:evenodd;clip-rule:evenodd;stroke-linejoin:round;stroke-miterlimit:2;">
    <g transform="matrix(1.39871,0,0,1.38938,1.51131,0.0833154)">
        <path d="M315.887,152.189L76.138,152.189L40.287,285.989C65.009,286.16 89.702,286.29 114.369,286.377C137.4,286.46 164.56,286.502 195.88,286.502C227.23,286.502 254.459,286.46 277.528,286.377C302.238,286.29 326.974,286.16 351.74,285.989L315.887,152.189ZM195.983,274.983L195.929,274.983L195.983,274.983ZM196.013,274.983C200,274.983 205.117,274.942 211.376,274.862C216.576,274.795 221.709,274.698 226.774,274.568C229.775,274.498 232.183,272.135 232.367,269.193C232.368,269.178 232.369,269.164 232.37,269.149C232.377,268.999 232.38,268.848 232.377,268.695L232.368,268.494L232.377,268.493L232.065,263.445L232.063,263.412C234.141,263.404 236.122,263.396 238.004,263.387C249.77,263.332 261.551,263.254 273.348,263.153L270.009,243.417L281.669,243.417L285.035,263.31L285.809,267.885L285.799,267.887C285.848,268.179 285.875,268.479 285.877,268.785C285.877,268.872 285.877,268.957 285.873,269.043C285.761,272.093 283.266,274.543 280.184,274.568C266.163,274.699 252.117,274.796 238.049,274.862C220.865,274.942 206.866,274.983 196.027,274.983L196.013,274.983ZM128.698,163.709L302.621,163.709L302.621,163.715C305.164,163.714 307.491,165.411 308.178,167.984L334.802,267.345L334.789,267.349C334.914,267.815 334.98,268.303 334.982,268.808C334.995,271.976 332.436,274.555 329.267,274.568C307.051,274.699 284.812,274.796 262.551,274.862C235.324,274.942 213.159,274.983 196.013,274.983L195.88,274.983C185.058,274.983 171.074,274.943 153.901,274.862C139.978,274.797 126.076,274.7 112.197,274.571C111.786,274.593 111.365,274.571 110.942,274.5C108.201,274.044 106.239,271.717 106.142,269.044C106.128,268.664 106.152,268.276 106.217,267.885L106.991,263.31C94.755,263.262 82.512,263.204 70.263,263.135L75.546,243.417L70.356,243.417L70.356,231.898L78.633,231.898L85.36,206.794L80.093,206.794L80.093,195.274L88.446,195.274L93.817,175.229L121.894,175.229L122.868,169.469L122.968,168.878C123.264,165.974 125.717,163.709 128.698,163.709Z" style="fill:rgb(224,225,224);"/>
        <path d="M64.525,27.472C74.554,27.472 83.634,31.537 90.206,38.109C96.779,44.681 100.844,53.761 100.844,63.79C100.844,73.818 96.779,82.898 90.206,89.471C83.634,96.043 74.554,100.109 64.525,100.109C54.497,100.109 45.417,96.043 38.845,89.471C32.272,82.898 28.207,73.818 28.207,63.79C28.207,53.762 32.272,44.682 38.845,38.109C45.417,31.537 54.497,27.472 64.525,27.472ZM82.061,46.254C77.574,41.767 71.374,38.992 64.525,38.992C57.677,38.992 51.477,41.767 46.99,46.254C42.503,50.742 39.727,56.942 39.727,63.79C39.727,70.638 42.503,76.838 46.99,81.326C51.477,85.813 57.677,88.589 64.525,88.589C71.374,88.589 77.574,85.813 82.061,81.326C86.548,76.838 89.324,70.638 89.324,63.79C89.324,56.941 86.548,50.741 82.061,46.254Z" style="fill:rgb(26,56,103);"/>
        <path d="M57.443,5.79C57.443,2.609 60.022,0.03 63.203,0.03C66.384,0.03 68.963,2.609 68.963,5.79L68.963,33.45C68.963,36.631 66.384,39.21 63.203,39.21C60.022,39.21 57.443,36.631 57.443,33.45L57.443,5.79Z" style="fill:rgb(26,56,103);"/>
        <path d="M100.685,17.615C102.934,15.366 106.581,15.366 108.83,17.615C111.079,19.864 111.079,23.511 108.83,25.76L91.205,43.385C88.956,45.634 85.309,45.634 83.06,43.385C80.811,41.136 80.811,37.489 83.06,35.24L100.685,17.615Z" style="fill:rgb(26,56,103);"/>
        <path d="M122.744,56.707C125.925,56.707 128.504,59.286 128.504,62.467C128.504,65.648 125.925,68.227 122.744,68.227L99.407,68.227C96.226,68.227 93.647,65.648 93.647,62.467C93.647,59.286 96.226,56.707 99.407,56.707L122.744,56.707Z" style="fill:rgb(26,56,103);"/>
        <path d="M110.7,99.949C112.949,102.198 112.949,105.845 110.7,108.094C108.451,110.343 104.804,110.343 102.555,108.094L84.928,90.467C82.679,88.218 82.679,84.571 84.928,82.322C87.177,80.073 90.824,80.073 93.073,82.322L110.7,99.949Z" style="fill:rgb(26,56,103);"/>
        <path d="M71.608,122.009C71.608,125.19 69.029,127.769 65.848,127.769C62.668,127.769 60.088,125.19 60.088,122.009L60.088,97.207C60.088,94.026 62.668,91.447 65.848,91.447C69.029,91.447 71.608,94.026 71.608,97.207L71.608,122.009Z" style="fill:rgb(26,56,103);"/>
        <path d="M28.367,109.965C26.118,112.214 22.471,112.214 20.222,109.965C17.973,107.716 17.973,104.069 20.222,101.82L38.214,83.827C40.463,81.578 44.11,81.578 46.359,83.827C48.608,86.076 48.608,89.723 46.359,91.972L28.367,109.965Z" style="fill:rgb(26,56,103);"/>
        <path d="M6.307,70.874C3.126,70.874 0.546,68.295 0.546,65.114C0.546,61.934 3.126,59.354 6.307,59.354L32.863,59.354C36.044,59.354 38.623,61.934 38.623,65.114C38.623,68.295 36.044,70.874 32.863,70.874L6.307,70.874Z" style="fill:rgb(26,56,103);"/>
        <path d="M18.351,27.631C16.102,25.382 16.102,21.735 18.351,19.486C20.6,17.237 24.247,17.237 26.496,19.486L44.009,36.999C46.258,39.248 46.258,42.895 44.009,45.144C41.76,47.393 38.113,47.393 35.864,45.144L18.351,27.631Z" style="fill:rgb(26,56,103);"/>
        <path d="M27.251,290.189L66.168,144.944C66.856,142.371 69.183,140.674 71.726,140.676L71.726,140.669L320.299,140.669C323.073,140.669 325.387,142.628 325.936,145.238L364.776,290.189C365.596,293.258 363.773,296.412 360.704,297.232C360.075,297.4 359.442,297.457 358.827,297.415C331.737,297.609 304.639,297.755 277.528,297.853C246.156,297.965 218.959,298.022 195.88,298.022C172.866,298.022 145.689,297.965 114.369,297.853C87.163,297.755 59.97,297.608 32.786,297.412C29.617,297.4 27.058,294.821 27.07,291.652C27.072,291.147 27.14,290.659 27.264,290.193L27.251,290.189ZM76.138,152.189L40.287,285.989C65.009,286.16 89.702,286.29 114.369,286.377C137.4,286.46 164.56,286.502 195.88,286.502C227.23,286.502 254.459,286.46 277.528,286.377C302.238,286.29 326.974,286.16 351.74,285.989L315.887,152.189L76.138,152.189Z" style="fill:rgb(26,56,103);"/>
        <path d="M70.263,263.135C89.978,263.245 109.675,263.33 129.355,263.387C146.466,263.438 168.657,263.462 195.88,263.462C223.164,263.462 245.402,263.438 262.551,263.387C282.27,263.33 302.008,263.245 321.763,263.135L298.209,175.229L93.817,175.229L70.263,263.135ZM129.355,274.862C107.274,274.797 85.216,274.7 63.18,274.571C62.563,274.614 61.928,274.557 61.296,274.388C58.227,273.568 56.404,270.415 57.224,267.345L83.769,168.277C84.318,165.668 86.633,163.709 89.405,163.709L302.621,163.709L302.621,163.715C305.164,163.714 307.491,165.411 308.178,167.984L334.802,267.345L334.789,267.349C334.914,267.815 334.98,268.303 334.982,268.808C334.995,271.976 332.436,274.555 329.267,274.568C307.051,274.699 284.812,274.796 262.551,274.862C235.253,274.943 213.044,274.983 195.88,274.983C178.754,274.983 156.593,274.943 129.355,274.862Z" style="fill:rgb(26,56,103);"/>
        <path d="M201.64,362.691C201.64,365.872 199.061,368.451 195.88,368.451C192.7,368.451 190.121,365.872 190.121,362.691L190.121,292.262C190.121,289.082 192.7,286.502 195.88,286.502C199.061,286.502 201.64,289.082 201.64,292.262L201.64,362.691Z" style="fill:rgb(26,56,103);"/>
        <path d="M141.529,368.451C138.348,368.451 135.769,365.872 135.769,362.691C135.769,359.509 138.348,356.931 141.529,356.931L250.232,356.931C253.413,356.931 255.992,359.509 255.992,362.691C255.992,365.872 253.413,368.451 250.232,368.451L141.529,368.451Z" style="fill:rgb(26,56,103);"/>
        <path d="M118.678,263.153C130.45,263.254 142.206,263.332 153.946,263.387C164.751,263.438 178.755,263.462 195.929,263.462C213.142,263.462 227.176,263.438 238.004,263.387C249.77,263.332 261.551,263.254 273.348,263.153L258.473,175.229L133.554,175.229L118.678,263.153ZM153.901,274.862C139.978,274.797 126.076,274.7 112.197,274.571C111.786,274.593 111.365,274.571 110.942,274.5C107.811,273.979 105.695,271.017 106.217,267.885L122.968,168.878C123.264,165.974 125.717,163.709 128.698,163.709L263.329,163.709L263.329,163.72C266.09,163.717 268.53,165.71 268.999,168.524L285.809,267.885L285.799,267.887C285.848,268.179 285.875,268.479 285.877,268.785C285.901,271.954 283.353,274.543 280.184,274.568C266.163,274.699 252.117,274.796 238.049,274.862C220.813,274.943 206.782,274.983 195.929,274.983C185.1,274.983 171.1,274.943 153.901,274.862Z" style="fill:rgb(26,56,103);"/>
        <path d="M171.491,263.232C174.603,263.295 177.69,263.348 180.752,263.387C184.687,263.438 189.768,263.462 195.983,263.462C202.209,263.462 207.298,263.438 211.241,263.387C214.314,263.348 217.412,263.296 220.536,263.231L215.115,175.229L176.911,175.229L171.491,263.232ZM180.617,274.862C175.53,274.797 170.508,274.702 165.551,274.576C165.386,274.581 165.218,274.578 165.05,274.568C161.881,274.382 159.463,271.662 159.649,268.493L165.748,169.49L165.747,169.469C165.747,166.288 168.326,163.709 171.507,163.709L220.519,163.709L220.519,163.722C223.541,163.719 226.077,166.076 226.256,169.131L232.377,268.493L232.368,268.494C232.372,268.56 232.375,268.627 232.377,268.695C232.451,271.864 229.942,274.494 226.774,274.568C221.709,274.698 216.576,274.795 211.376,274.862C205.101,274.943 199.973,274.983 195.983,274.983C192,274.983 186.88,274.943 180.617,274.862Z" style="fill:rgb(26,56,103);"/>
        <rect x="80.093" y="195.274" width="231.765" height="11.52" style="fill:rgb(26,56,103);"/>
        <rect x="70.356" y="231.898" width="251.377" height="11.519" style="fill:rgb(26,56,103);"/>
        <path d="M64.525,88.589C71.374,88.589 77.574,85.813 82.061,81.326C86.548,76.838 89.324,70.638 89.324,63.79C89.324,56.941 86.548,50.741 82.061,46.254C77.629,41.822 71.525,39.06 64.776,38.993C64.276,39.134 63.749,39.21 63.203,39.21C62.83,39.21 62.466,39.175 62.113,39.107C56.228,39.675 50.944,42.3 46.99,46.254C42.503,50.742 39.727,56.942 39.727,63.79C39.727,70.638 42.503,76.838 46.99,81.326C51.477,85.813 57.677,88.589 64.525,88.589Z" style="fill:rgb(251,194,58);"/>
        <path d="M121.894,175.229L93.817,175.229L88.446,195.274L118.502,195.274L121.894,175.229Z" style="fill:rgb(127,204,196);"/>
        <path d="M133.554,175.229L130.162,195.274L164.159,195.274L165.394,175.229L133.554,175.229Z" style="fill:rgb(127,204,196);"/>
        <path d="M176.911,175.229L175.676,195.274L216.35,195.274L215.115,175.229L176.911,175.229Z" style="fill:rgb(127,204,196);"/>
        <path d="M226.632,175.229L227.867,195.274L261.864,195.274L258.473,175.229L226.632,175.229Z" style="fill:rgb(127,204,196);"/>
        <path d="M270.132,175.229L273.524,195.274L303.58,195.274L298.209,175.229L270.132,175.229Z" style="fill:rgb(127,204,196);"/>
        <path d="M306.667,206.794L275.473,206.794L279.72,231.898L313.393,231.898L306.667,206.794Z" style="fill:rgb(127,204,196);"/>
        <path d="M268.06,231.898L263.813,206.794L228.577,206.794L230.123,231.898L268.06,231.898Z" style="fill:rgb(127,204,196);"/>
        <path d="M218.606,231.898L217.059,206.794L174.967,206.794L173.42,231.898L218.606,231.898Z" style="fill:rgb(127,204,196);"/>
        <path d="M161.904,231.898L163.45,206.794L128.213,206.794L123.966,231.898L161.904,231.898Z" style="fill:rgb(127,204,196);"/>
        <path d="M112.306,231.898L116.553,206.794L85.36,206.794L78.633,231.898L112.306,231.898Z" style="fill:rgb(127,204,196);"/>
        <path d="M110.357,243.417L75.546,243.417L70.263,263.135C82.512,263.204 94.755,263.262 106.991,263.31L110.357,243.417Z" style="fill:rgb(127,204,196);"/>
        <path d="M122.017,243.417L118.678,263.153C130.45,263.254 142.206,263.332 153.946,263.387C155.852,263.396 157.857,263.404 159.962,263.412L161.194,243.417L122.017,243.417Z" style="fill:rgb(127,204,196);"/>
        <path d="M172.711,243.417L171.491,263.232C174.603,263.295 177.69,263.348 180.752,263.387C184.665,263.437 189.712,263.462 195.88,263.462L196.013,263.462C202.225,263.462 207.305,263.438 211.241,263.387C214.314,263.348 217.412,263.296 220.536,263.231L219.315,243.417L172.711,243.417Z" style="fill:rgb(127,204,196);"/>
        <path d="M230.833,243.417L232.063,263.412C234.141,263.404 236.122,263.396 238.004,263.387C249.77,263.332 261.551,263.254 273.348,263.153L270.009,243.417L230.833,243.417Z" style="fill:rgb(127,204,196);"/>
        <path d="M281.669,243.417L285.035,263.31C297.271,263.261 309.513,263.203 321.763,263.135L316.48,243.417L281.669,243.417Z" style="fill:rgb(127,204,196);"/>
    </g>
</svg>
