<?xml version="1.0" encoding="UTF-8" standalone="no"?>
<!DOCTYPE svg PUBLIC "-//W3C//DTD SVG 1.1//EN" "http://www.w3.org/Graphics/SVG/1.1/DTD/svg11.dtd">
<svg width="100%" height="100%" viewBox="0 0 1440 750" version="1.1" xmlns="http://www.w3.org/2000/svg" xmlns:xlink="http://www.w3.org/1999/xlink" xml:space="preserve" xmlns:serif="http://www.serif.com/" style="fill-rule:evenodd;clip-rule:evenodd;stroke-linejoin:round;stroke-miterlimit:2;">
    <g transform="matrix(0.880651,0,0,0.875936,-189.943,0)">
        <path d="M940.6,0C904.505,155.846 987.621,165.665 1000.35,364.912C1004.86,435.662 1028.05,503.816 1067.44,562.056C1072.5,569.606 1077.72,577.348 1083.05,585.283C1149.47,683.725 1250.7,751.647 1365.19,774.577L1365.19,774.581C1396.09,780.77 1427.8,781.491 1458.93,776.712C1504.31,769.747 1573.3,759.159 1623.35,751.477C1665.1,745.07 1707.39,743.27 1749.51,746.106C1818.76,750.769 1920,757.586 1920,757.586L1920,0L940.6,0Z" style="fill:rgb(246,174,45);"/>
    </g>
    <g transform="matrix(0.916794,0,0,0.895407,-259.337,0)">
        <path d="M1920,0L1035.47,0C1018.35,71.013 1055.17,106.066 1054.74,176.974C1054.06,289.086 1073.5,317.073 1089.9,367.99C1100.7,401.372 1116.25,432.937 1136.06,461.662C1155.93,490.533 1182.1,528.477 1208.55,566.827C1280.28,670.837 1398.4,730.794 1522.68,726.274C1566.53,724.68 1604.79,723.288 1621.07,722.696C1626.63,722.494 1632.19,722.765 1637.7,723.505C1645.47,724.547 1657.77,726.199 1670.59,727.918C1704.41,732.459 1737.81,739.875 1770.43,750.09C1805.92,761.201 1843.05,765.789 1880.1,763.641C1901.11,762.422 1920,761.327 1920,761.327L1920,0Z" style="fill:url(#_Radial1);"/>
    </g>
    <defs>
        <radialGradient id="_Radial1" cx="0" cy="0" r="1" gradientUnits="userSpaceOnUse" gradientTransform="matrix(889.073,0,0,766.889,1030.93,383.444)"><stop offset="0" style="stop-color:rgb(106,152,192);stop-opacity:1"/><stop offset="1" style="stop-color:rgb(0,151,180);stop-opacity:1"/></radialGradient>
    </defs>
</svg>
